<?xml version="1.0" encoding="UTF-8" standalone="no"?>
<!DOCTYPE svg PUBLIC "-//W3C//DTD SVG 1.1//EN" "http://www.w3.org/Graphics/SVG/1.1/DTD/svg11.dtd">
<svg xmlns="http://www.w3.org/2000/svg" version="1.1" viewBox="0 0 205 182" width="41.0pt" height="36.4pt">
<path d="M 0.00 0.00 L 205.00 0.00 L 205.00 182.00 L 0.00 182.00 L 0.00 0.00 Z" fill="#ffffff" />
<path d="M 105.79 13.58 C 108.61 14.43 110.65 16.51 113.46 17.59 C 116.95 18.98 120.32 20.24 123.16 22.82 C 126.68 25.70 128.83 29.51 130.51 33.67 C 137.62 33.47 144.67 33.93 151.57 35.77 C 151.58 37.16 151.52 38.54 151.41 39.93 C 150.51 41.75 148.98 43.30 148.18 45.16 C 146.62 48.98 146.48 52.94 144.69 56.70 C 143.59 59.22 141.66 60.69 139.72 62.53 C 143.21 63.93 146.51 65.08 149.41 67.58 C 154.43 71.86 158.56 77.37 161.96 82.99 C 166.06 90.07 168.66 98.14 170.84 106.00 C 172.98 113.52 173.23 121.05 173.19 128.82 C 172.49 139.35 167.34 149.89 161.60 158.60 C 159.26 162.08 156.42 165.44 151.90 165.68 C 146.95 165.95 141.95 165.82 136.99 165.77 C 135.41 165.62 133.53 165.82 132.48 164.39 C 130.79 162.56 132.34 159.90 132.95 157.91 C 137.58 146.62 142.77 135.35 144.33 123.11 C 145.31 114.82 146.57 106.93 143.70 98.87 C 142.09 106.19 143.54 113.48 141.73 120.74 C 140.78 124.51 140.13 128.34 139.22 132.12 C 137.39 140.07 133.64 147.80 130.14 155.14 C 128.34 158.65 126.47 162.84 123.49 165.50 C 121.12 165.91 118.62 165.77 116.21 165.83 C 114.59 163.71 112.70 160.52 110.06 159.64 C 107.40 158.96 104.33 158.76 101.70 159.67 C 99.16 160.79 97.32 163.65 95.61 165.76 C 93.25 165.77 90.80 165.95 88.47 165.56 C 85.43 162.97 83.58 158.74 81.76 155.25 C 78.85 148.77 75.76 142.30 73.45 135.58 C 69.91 123.82 68.92 111.98 68.08 99.93 C 65.84 108.05 66.31 117.03 67.73 125.25 C 70.02 135.51 73.62 145.53 77.88 155.13 C 78.82 157.33 79.86 159.66 80.26 162.03 C 80.29 164.11 78.83 165.58 76.74 165.58 C 71.35 165.83 65.49 165.91 60.10 165.71 C 55.58 165.55 52.81 162.10 50.33 158.77 C 44.95 150.76 40.88 141.65 39.04 132.15 C 37.28 121.94 39.51 112.76 42.01 102.94 C 46.15 90.04 50.51 78.16 60.75 68.74 C 64.41 65.36 68.85 63.76 73.70 62.97 C 71.30 61.20 68.55 59.60 67.16 56.85 C 65.03 52.88 65.03 48.51 63.48 44.53 C 61.70 41.46 59.28 40.02 60.75 36.03 C 66.91 33.48 74.57 33.74 81.16 33.52 C 83.23 29.24 85.48 25.27 89.34 22.33 C 92.79 19.41 96.80 18.29 100.88 16.63 C 102.63 15.99 104.06 13.95 105.79 13.58 Z" fill="#2e333c" />
<path d="M 95.91 29.83 C 99.73 30.12 102.65 31.89 106.00 33.51 C 109.31 31.85 112.18 30.10 115.99 29.86 C 119.85 29.86 122.76 31.57 125.97 33.43 C 120.78 35.05 115.39 36.06 110.10 37.34 C 106.75 38.14 103.46 37.83 100.17 36.97 C 95.46 35.78 90.64 34.93 86.02 33.45 C 89.19 31.55 92.07 29.82 95.91 29.83 Z" fill="#ffffff" />
<path d="M 72.55 39.68 C 77.26 37.78 83.12 38.20 88.08 38.77 C 90.82 39.37 95.19 40.04 96.33 43.06 C 97.18 46.96 95.87 51.46 93.80 54.80 C 91.03 59.10 85.79 60.40 80.96 60.25 C 77.50 60.06 73.96 59.04 72.07 55.89 C 70.62 53.20 70.04 49.96 69.68 46.95 C 69.39 44.48 70.11 40.90 72.55 39.68 Z" fill="#ffffff" />
<path d="M 119.51 39.81 C 124.99 38.04 131.38 37.90 137.02 38.88 C 139.97 39.55 141.66 40.91 142.26 43.96 C 142.65 47.47 141.79 52.08 140.26 55.28 C 138.42 58.87 134.83 60.06 131.03 60.29 C 126.50 60.41 121.37 59.32 118.55 55.44 C 116.12 52.04 114.75 47.50 115.43 43.33 C 115.69 41.49 117.92 40.35 119.51 39.81 Z" fill="#ffffff" />
<path d="M 89.65 44.50 L 89.98 44.80 C 90.95 45.78 91.85 46.77 92.51 48.00 C 92.57 49.88 91.13 53.01 88.86 52.66 C 86.17 52.97 84.58 51.14 84.28 48.63 C 85.99 47.16 87.86 45.87 89.65 44.50 Z" fill="#2e333c" />
<path d="M 109.05 45.87 C 111.05 49.42 112.25 53.96 114.82 57.18 C 117.95 61.34 124.14 63.06 125.73 67.99 C 124.44 70.22 122.35 71.18 120.05 72.05 C 110.85 75.42 100.34 75.37 91.20 71.80 C 89.13 71.01 87.36 69.95 86.22 67.99 C 87.64 63.42 93.64 61.31 96.69 57.68 C 100.31 53.89 100.77 48.47 103.75 44.61 C 105.45 44.27 108.36 43.75 109.05 45.87 Z" fill="#ffffff" />
<path d="M 124.53 44.75 L 124.97 44.44 C 126.30 46.18 127.98 47.42 127.37 49.87 C 126.61 51.38 125.79 52.82 123.87 52.66 C 121.10 53.03 119.72 51.04 119.38 48.58 C 120.97 47.15 122.81 45.99 124.53 44.75 Z" fill="#2e333c" />
<path d="M 102.92 60.22 C 104.54 59.67 103.92 63.19 104.24 64.09 C 103.23 63.67 102.28 63.16 101.41 62.54 C 101.74 61.71 101.56 59.68 102.92 60.22 Z" fill="#2e333c" />
<path d="M 107.84 59.81 C 109.02 60.12 109.83 60.64 110.28 61.38 C 111.35 62.74 108.65 63.48 107.93 64.18 C 107.87 62.72 107.84 61.27 107.84 59.81 Z" fill="#2e333c" />
<path d="M 92.95 75.59 C 95.96 75.93 98.93 76.60 101.95 76.92 C 107.58 77.81 113.64 76.34 119.26 75.52 C 118.04 77.90 116.84 80.10 114.50 81.56 C 111.02 83.87 107.15 83.96 103.12 83.69 C 98.61 83.36 94.13 80.04 92.95 75.59 Z" fill="#ffffff" />
</svg>